<svg version="1.0" xmlns="http://www.w3.org/2000/svg" width="30" height="30" viewBox="0 0 3440 3440"><path d="M279 3394c-61-18-136-86-165-149-33-70-33-170 0-240 44-95 152-165 253-165 61 0 383 77 413 99 17 12 26 29 28 52l3 34 115 26c84 19 114 23 110 13-20-51-29-111-30-184 0-76 32-228 302-1430C1475 710 1616 92 1622 77c12-32 36-47 73-47 20 0 52 24 126 96 151 144 271 191 422 166 109-19 168-53 283-164 83-79 108-98 132-98 68 0 47-77 378 1385 215 950 307 1375 311 1435 19 300-228 560-533 560-59 0-94-22-94-60 0-19-7-20-104-20-82 0-106 3-117 16-52 62-189 79-272 32l-47-27-51 27c-94 48-225 38-291-23-24-22-36-25-103-25-61 0-75 3-75 15 0 9-11 27-25 40l-24 25-643-1c-524 0-651-3-689-15z" fill="#475bca"/><path d="M1661 3307c-16-41-40-52-133-58-71-5-101-13-152-38-81-40-156-120-187-199-44-114-49-86 260-1462 155-690 284-1261 287-1268 3-9 21 2 56 33 60 52 167 107 248 126 78 18 223 16 294-5 85-25 164-67 227-121 29-25 55-42 56-38s131 580 288 1278c324 1436 311 1357 247 1487-60 122-165 194-304 208-84 8-128 29-128 60 0 19-7 20-95 20h-95l22-41c15-29 61-239 145-658 68-338 123-628 123-644 0-35-40-77-75-77-37 0-61 15-73 47-6 15-66 303-132 638-134 671-129 655-201 655-29 0-42-6-58-26-21-26-21-36-21-509s0-483-21-509c-29-37-89-37-118 0-21 26-21 36-21 501 0 396-2 479-15 502-16 33-33 41-81 41-42 0-70-13-84-40-5-10-66-297-135-636-135-665-135-664-195-664-42 0-80 35-80 75 0 61 249 1263 270 1305l20 40h-65c-59 0-66-2-74-23zm308-2343c26-33 27-64 1-97s-63-41-99-23c-31 17-41 34-41 74 0 67 97 99 139 46zm516 20c23-9 46-60 39-88-15-60-98-82-135-37-25 31-24 86 1 111 20 20 63 26 95 14zM313 3235c-85-37-95-153-17-214 38-30 78-27 273 19 94 22 178 37 188 33 10-3 28-15 40-26l22-20 107 24c97 21 109 26 123 52 9 16 35 56 58 88l43 59H747c-319-1-409-4-434-15z" fill="#ffffff"/></svg>